<svg xmlns="http://www.w3.org/2000/svg" width="178" height="64" viewBox="0 0 178 64">
    <g fill="none">
        <path fill="#4A310D" d="M131.318 14.64c-.4-.72-1.122-1.28-1.763-1.52-.721-.24-1.362-.56-2.243-.56-.882 0-1.683.16-2.484.56-.721.4-1.362.8-1.923 1.52-.56.56-.961 1.28-1.282 2.08-.24.8-.4 1.68-.4 2.48s.16 1.76.4 2.64c.24.8.721 1.52 1.282 2.08 2.243 2.48 5.929 2.64 8.413.56.24-.24.56-.56.72-.8l1.363 1.28c-.721.96-1.522 1.68-2.644 2.08-1.122.4-2.243.72-3.445.72-1.122 0-2.244-.24-3.205-.72-1.923-.8-3.445-2.48-4.327-4.4-.4-1.12-.72-2.24-.72-3.36 0-1.12.16-2.24.56-3.36.801-1.92 2.324-3.6 4.327-4.4 1.121-.4 2.243-.72 3.365-.72 1.121 0 2.243.16 3.205.56.961.4 1.762 1.12 2.483 1.92l-1.682 1.36zM137.407 11.36L139.33 11.36 139.33 27.28 137.407 27.28zM150.066 11.36h1.763l6.89 16.08h-2.243l-1.683-4h-8.012l-1.682 3.84h-2.244l7.211-15.92zm.801 2.48l-3.365 7.92h6.65l-3.285-7.92zM162.244 11.36L164.167 11.36 164.167 25.6 171.618 25.6 171.618 27.36 162.324 27.36zM96.545 40c-.4-.72-1.121-1.28-1.762-1.52-.721-.24-1.362-.56-2.244-.56-.8 0-1.682.16-2.483.56-.721.4-1.362.8-1.923 1.52-.561.56-.962 1.28-1.282 2.08-.24.8-.4 1.68-.4 2.48s.16 1.76.4 2.64c.24.8.72 1.52 1.282 2.08 2.243 2.48 5.929 2.64 8.412.56.24-.24.561-.56.721-.8l1.363 1.28c-.722.96-1.523 1.68-2.644 2.08-1.122.4-2.244.72-3.446.72-1.121 0-2.243-.24-3.204-.72-1.923-.8-3.446-2.48-4.327-4.4-.4-1.12-.721-2.24-.721-3.36 0-1.12.16-2.24.56-3.36.802-1.92 2.324-3.6 4.327-4.4 1.122-.4 2.244-.72 3.365-.72 1.122 0 2.244.16 3.205.56.962.4 1.923 1.28 2.484 2.24L96.545 40zM107.923 36.8h1.762l6.89 16.08h-2.243l-1.682-3.84h-8.173l-1.682 3.76h-2.083l7.21-16zm.8 2.48l-3.364 7.92h6.65l-3.285-7.92zM120.1 36.8h6.49c1.122 0 2.084.56 2.084.56.72.24 1.121.8 1.522 1.36.4.72.56 1.52.56 2.32 0 1.12-.4 2.08-1.12 2.88-.802.8-1.763 1.28-2.885 1.36l4.567 7.36h-2.324l-4.406-7.2h-2.484v7.2h-1.923V36.8h-.08zm1.924 7.04h3.846c.8 0 2.644-.72 2.644-2.64 0-1.92-1.763-2.64-2.484-2.64h-4.166l.16 5.28zM165.369 36.8h6.49c1.122 0 2.083.56 2.083.56.721.24 1.122.8 1.522 1.36.4.72.561 1.52.561 2.32 0 1.12-.4 2.08-1.122 2.88-.8.8-1.762 1.28-2.884 1.36l4.567 7.36h-2.324l-4.406-7.2h-2.484v7.2h-1.923V36.8h-.08zm2.003 7.04h3.846c.801 0 2.644-.72 2.644-2.64 0-1.92-1.763-2.64-2.484-2.64h-4.166l.16 5.28zM135.484 36.8L145.739 36.8 145.739 38.56 137.407 38.56 137.407 43.52 145.179 43.52 145.179 45.28 137.407 45.28 137.407 50.96 146.14 50.96 146.14 52.64 135.484 52.64zM150.467 36.8L160.722 36.8 160.722 38.56 152.39 38.56 152.39 43.52 160.161 43.52 160.161 45.28 152.39 45.28 152.39 50.96 161.123 50.96 161.123 52.64 150.627 52.64z"/>
        <ellipse cx="38.378" cy="32.48" fill="#F4847C" rx="4.407" ry="4.4"/>
        <path fill="#78CDD1" d="M7.05 17.04c20.351 7.2 19.15-3.6 33.09-1.76.401 0 .722.4.561.8 0 .16-.16.24-.24.4-14.342 8.8-10.977 50.08-39.26 34.88-.56-.24-.56-1.12 0-1.12 17.627-1.36 24.918-21.76 30.767-29.36C21.552 30.32 9.534 30.16 6.09 18c-.24-.24-.16-.72.16-.96.24-.16.481-.16.802 0z"/>
        <path fill="#F4847C" d="M33.65 38.56c-6.49 7.04 2.324 18-4.887 23.76-.8.72-.16 1.92 1.523 1.52 20.35-4.88 0-17.6 5.688-24.64.882-1.04-1.202-1.84-2.323-.64z"/>
        <ellipse cx="51.918" cy="14.8" fill="#FFC60B" rx="3.846" ry="3.84"/>
        <path fill="#FFC60B" d="M75.233 48c-7.932-6.88-12.739-4-18.988-2.24 1.522-3.36.961-7.6-2.644-11.36-.721-.8-1.362-1.68-1.923-2.64 5.528-.16 11.617-5.84 15.543-5.92.801 0 .24-.72-.4-.96-5.85-2.64-10.096 2.8-16.665 1.52 0-1.92.16-3.76.4-5.68 0-.72-.56-1.12-1.122-.8-.56.32-2.243 2.88-2.483 5.36l-2.805-1.68c-.72-.56-1.522 0-1.281.8.8 2.32 2.243 4.32 4.166 5.92.24 1.68.72 3.2 1.362 4.72 2.484 5.92 1.362 12.48-4.567 10.64l-2.083-.8c-.24-.24-.801-.24-1.282 0-.24.24-.24.8.16 1.28 14.422 17.6 22.434-4.32 33.65 3.36.962.4 1.603-.96.962-1.52z"/>
        <ellipse cx="35.173" cy="6.64" fill="#78CDD1" rx="6.65" ry="6.64"/>
        <path fill="#4A310D" d="M93.1 14.08c-1.522-2.48-7.05-1.68-6.25 1.68.722 2.64 5.85 2.24 7.452 4.72 1.122 1.68.721 3.6 0 4.72-1.522 2.64-7.451 3.44-9.855.16L86.13 24c1.362 2.64 6.81 2.32 6.81-1.12 0-2.8-3.605-2.32-6.25-4-2.643-1.68-2.643-5.12-.24-6.88 2.324-1.76 6.25-1.52 8.173.72L93.1 14.08zM107.041 27.68c-4.967 0-8.412-3.6-8.412-8.4 0-4.72 3.365-8.4 8.412-8.4 4.968 0 8.413 3.6 8.413 8.4.24 4.8-3.365 8.4-8.413 8.4zm0-1.84c8.573 0 8.413-13.28 0-13.28-8.573 0-8.412 13.28 0 13.28z"/>
    </g>
</svg>
