<svg width="500" height="79" viewBox="0 0 500 79" fill="none" xmlns="http://www.w3.org/2000/svg">
<path d="M212.07 68.4224C210.105 68.4379 208.158 68.0445 206.354 67.267C204.398 66.357 202.656 65.0445 201.242 63.4155C199.596 61.6298 198.289 58.9541 197.32 55.3885C196.271 51.2027 195.78 46.8967 195.858 42.5822C195.858 33.6187 197.428 27.0711 200.568 22.9395C203.707 18.8079 207.564 16.7421 212.14 16.7421C215.843 16.7252 219.403 18.1761 222.04 20.7774C224.905 23.4676 226.504 27.6226 226.837 33.2423L216.534 37.1201C216.236 33.2861 215.659 30.6513 214.923 29.242C214.188 27.8327 213.173 27.0711 212.052 27.0711C210.66 27.0711 209.426 28.4104 208.358 31.0715C207.29 33.7325 206.748 37.584 206.748 42.6085C206.748 47.9364 207.258 51.858 208.279 54.3731C209.304 56.8854 210.555 58.1459 212.052 58.1459C214.678 58.1459 216.429 55.1347 217.304 49.1036L227.808 50.5216C227.421 53.5558 226.617 56.522 225.419 59.3363C224.55 61.4653 223.209 63.369 221.497 64.9035C220.142 66.0807 218.585 67.003 216.901 67.6259C215.345 68.1784 213.704 68.4569 212.052 68.4487" fill="#0F0F0F"/>
<path d="M240.588 49.6025H245.84L243.214 33.1023L240.588 49.6025ZM248.58 67.4508L247.39 59.9053H239.021L237.831 67.4508H226.775L236.334 17.8625H250.077L259.636 67.4508H248.58Z" fill="#0F0F0F"/>
<path d="M272.548 27.7189V40.7878H274.044C274.842 40.8482 275.642 40.7094 276.372 40.384C277.102 40.0585 277.74 39.5566 278.229 38.9233C279.142 37.6109 279.612 36.0402 279.568 34.4415C279.603 32.7695 279.12 31.1276 278.185 29.7409C277.727 29.0756 277.106 28.5398 276.38 28.1855C275.655 27.8312 274.85 27.6705 274.044 27.7189H272.548ZM290.991 67.4508H279.358L274.263 51.0994H272.513V67.4508H261.798V17.8625C265.644 17.4932 269.508 17.3442 273.37 17.4161C279.206 17.4161 283.513 18.9479 286.29 22.0117C289.068 25.0754 290.463 29.2187 290.475 34.4415C290.475 40.4172 288.409 44.899 284.277 47.8868L290.991 67.4508Z" fill="#0F0F0F"/>
<path d="M319.212 28.1653H304.725V36.8312H315.78V47.134H304.725V57.1392H319.212V67.4508H293.976V17.8625H319.212V28.1653Z" fill="#0F0F0F"/>
<path d="M348.641 28.1653H334.154V36.8312H345.201V47.134H334.154V57.1392H348.641V67.4508H323.396V17.8625H348.641V28.1653Z" fill="#0F0F0F"/>
<path d="M362.979 27.7189V40.7878H364.467C365.263 40.8483 366.062 40.7095 366.791 40.384C367.52 40.0585 368.156 39.5565 368.643 38.9233C369.559 37.6116 370.031 36.0411 369.991 34.4415C370.036 32.7733 369.565 31.1317 368.643 29.7409C368.184 29.0749 367.561 28.5387 366.834 28.1844C366.107 27.8301 365.301 27.6698 364.494 27.7189H362.979ZM381.423 67.4508H369.772L364.695 51.0993H362.944V67.4508H352.221V17.8625C356.07 17.4933 359.936 17.3443 363.802 17.4161C369.638 17.4161 373.944 18.9479 376.722 22.0116C379.5 25.0753 380.892 29.2186 380.897 34.4415C380.897 40.4172 378.832 44.899 374.7 47.8868L381.423 67.4508Z" fill="#0F0F0F"/>
<path d="M95.2024 68.5625C93.2357 68.5697 91.289 68.1673 89.4864 67.3808C87.534 66.4688 85.793 65.1601 84.3744 63.538C82.7287 61.7465 81.4216 59.0679 80.4528 55.5023C79.4078 51.316 78.9192 47.0101 78.9998 42.696C78.9998 33.7442 80.5666 27.1995 83.7004 23.062C86.8341 18.9246 90.6915 16.8646 95.2724 16.8821C98.9732 16.8675 102.529 18.3183 105.164 20.9175C108.023 23.6077 109.628 27.7656 109.978 33.3911L99.6754 37.2776C99.3778 33.4436 98.8409 30.8176 98.0648 29.3995C97.2945 27.9552 96.3141 27.2374 95.1936 27.2374C93.7989 27.2374 92.5676 28.568 91.4997 31.229C90.4318 33.8901 89.8949 37.7357 89.8891 42.7661C89.8891 48.0998 90.3997 52.0214 91.4209 54.5307C92.4451 57.0429 93.6968 58.3034 95.1936 58.3034C97.7847 58.3034 99.5354 55.2922 100.446 49.2699L110.95 50.6879C110.562 53.7191 109.757 56.6823 108.56 59.4939C107.692 61.6228 106.351 63.5265 104.639 65.0611C103.283 66.2383 101.727 67.1606 100.043 67.7834C98.4863 68.336 96.8455 68.6144 95.1936 68.6062" fill="#0F0F0F"/>
<path d="M123.8 18.0026H113.042V67.5908H123.8V18.0026Z" fill="#0F0F0F"/>
<path d="M139.775 49.7426H145.027L142.401 33.2423L139.775 49.7426ZM147.767 67.5908L146.568 60.0541H138.208L137.009 67.5908H125.954L135.512 18.0026H149.255L158.814 67.5908H147.767Z" fill="#0F0F0F"/>
<path d="M171.725 57.288H185.021V67.5908H160.976V18.0026H171.725V57.288Z" fill="#0F0F0F"/>
<path d="M15.5986 68.5619C11.7663 68.6034 8.06362 67.175 5.25207 64.5704C2.30857 61.9313 0.439094 58.3014 0 54.3726L10.758 50.5648C10.6588 53.1033 11.1081 55.0204 12.106 56.3159C12.4929 56.895 13.0124 57.3734 13.6214 57.7114C14.2304 58.0494 14.9113 58.2372 15.6074 58.2591C16.1862 58.2831 16.7636 58.1859 17.3026 57.9738C17.8416 57.7616 18.3303 57.4391 18.7374 57.0271C19.1445 56.615 19.4611 56.1224 19.6667 55.5809C19.8724 55.0394 19.9626 54.4608 19.9316 53.8824C19.9203 52.6548 19.4413 51.4778 18.5923 50.5911C17.1765 49.2404 15.5314 48.1526 13.7342 47.3786C9.32826 45.2252 6.12741 42.8472 4.13163 40.2445C2.0473 37.424 0.979736 33.9806 1.10293 30.4757C1.07491 28.6719 1.42673 26.8825 2.13553 25.2236C2.84433 23.5647 3.89425 22.0735 5.21705 20.8469C6.57227 19.5372 8.17567 18.5118 9.93297 17.8308C11.6903 17.1498 13.566 16.8271 15.4498 16.8816C17.2677 16.8509 19.0733 17.1861 20.759 17.8673C22.4447 18.5485 23.9763 19.5618 25.2624 20.8469C28.035 23.6048 29.7433 27.2541 30.0856 31.1497L19.3801 34.9925C19.3801 32.3664 19.0913 30.4669 18.3735 29.1714C18.1064 28.5925 17.6794 28.1019 17.1428 27.7576C16.6062 27.4133 15.9824 27.2296 15.3448 27.2282C14.8741 27.2068 14.4051 27.2973 13.976 27.492C13.547 27.6867 13.1701 27.9803 12.8763 28.3486C12.2631 29.1632 11.9535 30.1662 12.001 31.1847C12.001 33.519 13.9676 35.7832 17.9008 37.9774C22.5285 40.4692 25.8402 42.8472 27.836 45.1115C29.8317 47.3757 30.8296 50.3635 30.8296 54.075C30.8589 56.0039 30.4776 57.917 29.7109 59.6873C28.9442 61.4575 27.8098 63.0445 26.3829 64.3428C24.9528 65.723 23.2636 66.8065 21.4126 67.5306C19.5617 68.2548 17.5857 68.6053 15.5986 68.5619" fill="#0F0F0F"/>
<path d="M43.7674 67.5908H35.5392L32.9307 64.9736V20.6198L35.5392 18.0026H43.7674V23.2371H38.1565V62.3563H43.7674V67.5908Z" fill="#0F0F0F"/>
<path d="M74.2903 67.5908H66.0708V62.3563H71.6818V23.2371H66.0708V18.0026H74.2903L76.9076 20.6198V64.9736L74.2903 67.5908Z" fill="#0F0F0F"/>
<path d="M416.402 45.2703C415.382 44.3024 411.626 40.7536 409.426 38.9251C411.846 35.4364 413.891 31.6787 415.346 27.7593L411.267 24.801L409.924 25.0681L405.788 25.0638L410.087 22.5976C409.176 20.6093 407.246 17.8143 405.422 15.7714L399.241 18.9876C400.636 20.7615 402.138 23.1801 403.049 25.0609L394.455 25.0519L394.448 32.0344L405.673 32.0461C402.499 37.1453 397.767 41.7596 392.77 44.3862C393.681 45.9447 395.127 50.2969 395.554 52.5532C397.381 51.4272 399.209 50.0863 400.983 48.5305L400.964 67.1683L408.59 67.1763L408.611 47.518C409.737 49.0231 410.864 50.5282 411.614 51.7643L416.402 45.2703ZM433.629 58.0716L433.649 39.4338L443.21 39.4438L443.217 31.9243L433.657 31.9143L433.673 16.8215L425.616 16.813L425.6 31.9058L415.61 31.8954L415.602 39.4149L425.592 39.4254L425.573 58.0632L413.327 58.0503L413.319 65.731L444.525 65.7637L444.533 58.083L433.629 58.0716ZM457.829 29.6837L455.144 29.6809L455.149 25.008L457.834 25.0109L457.829 29.6837ZM455.12 52.347L455.126 46.8148L457.811 46.8176L457.806 51.9201L455.12 52.347ZM457.818 40.5334L455.132 40.5306L455.137 35.9651L457.823 35.9679L457.818 40.5334ZM464.978 25.0183L464.985 18.0896L447.797 18.0716L447.79 25.0003L449.616 25.0022L449.587 53.1469C448.727 53.2534 447.975 53.36 447.223 53.4667L448.559 59.9134L457.799 58.1506L457.79 67.2815L463.483 67.2875L463.527 25.0168L464.978 25.0183ZM471.983 54.6742L471.985 52.2572L475.53 52.261L475.528 54.678L471.983 54.6742ZM475.538 44.8488L475.536 47.2121L471.991 47.2084L471.993 44.8451L475.538 44.8488ZM475.127 26.9626C474.964 28.4126 474.64 30.3459 474.316 31.9569L471.899 31.9543C471.686 30.4502 471.258 28.4624 470.83 26.9581L475.127 26.9626ZM492.731 39.2272C492.031 41.6971 491.115 44.0595 490.092 46.2068C489.88 43.8433 489.668 41.265 489.51 38.4718L498.05 38.4808L498.056 31.9817L489.248 31.9725C489.143 29.1257 489.039 26.1715 489.042 23.1099C490.006 26.0651 491.023 29.3962 491.397 31.5451L497.146 29.4563C496.558 26.8776 495.058 22.6328 493.719 19.4625L488.991 21.0151C488.992 19.4575 488.994 17.8999 488.996 16.2886L482.443 16.2817C482.491 21.8677 482.593 27.1315 482.803 31.9657L479.634 31.9624C480.011 30.6738 480.442 29.1166 480.927 27.5595L476.685 26.9642L481.626 26.9694L481.632 21.1149L477.067 21.1101C476.639 19.552 476.104 17.7253 475.622 16.2746L469.283 17.2884C469.604 18.4167 469.925 19.8135 470.245 21.1029L465.895 21.0984L465.889 26.9529L470.132 26.9573L465.619 27.7046C465.94 28.994 466.207 30.5519 466.421 31.9486L464.648 31.9467L464.641 38.4458L483.118 38.4651C483.487 44.696 484.019 50.1214 484.874 54.5266C483.691 55.9219 482.454 57.2096 481.163 58.3899L481.183 39.7522L466.198 39.7365L466.173 63.6916L471.973 63.6977L471.977 59.7231L475.522 59.7268L475.521 60.9084L478.046 60.9111C477.078 61.6083 476.057 62.2518 475.036 62.8415C476.485 63.9173 478.416 65.9066 479.274 67.1429C481.854 65.6417 484.381 63.7644 486.692 61.511C488.139 65.1111 489.963 67.1004 492.434 67.1567C494.367 67.1587 497.108 65.4965 498.567 57.2802C497.547 56.5809 494.918 54.5371 493.952 52.9785C493.734 56.6306 493.302 58.6712 492.765 58.6706C492.335 58.6702 491.853 57.7029 491.479 56.0374C494.383 52.1196 496.805 47.5029 498.529 42.2948L492.731 39.2272Z" fill="#0F0F0F"/>
</svg>
